<svg version="1.1" viewBox="0 0 128 128" xmlns="http://www.w3.org/2000/svg">
 <g>
  <g transform="matrix(.3955 0 0 .3955 3.4365 -.20987)">
   <path d="m156.47 263.43c-4.0455-0.13494-6.35 0.84402-11.478 3.466a4.9821 4.9821 0 0 0 4.535 8.8662c6.2733-3.2147 8.0883-2.9501 9.5832-1.2012 1.8521 2.1537 1.3229 6.6701-1.1456 10.054l-0.26459 0.37042-0.0635 0.11906-0.0556 0.0212h-17.754c-3.7597-17.955-13.459-32.369-13.872-32.978a4.9806 4.9806 0 0 0-8.2391 5.5986c0.09 0.13493 9.1784 13.645 12.459 29.898 0.79375 3.8947 4.0561 6.8792 8.1359 7.4083l0.29633 0.0397h19.915l0.39158-0.0635c3.2676-0.52916 5.0562-1.1748 7.3369-4.8789 2.4686-4.0084 5.1885-16.502 0.42597-22.072-2.4765-2.9025-6.0087-4.5112-10.208-4.6487z" style="fill:#262c2d;stroke-width:.26458"/>
   <path d="m92.613 170.39c12.785-3.4396 33.906-0.69056 48.683 1.6669h0.0714c21.889 3.1591 41.325-6.44 42.143-6.8501a5.0959 5.0959 0 0 0-4.5667-9.1043c-0.17198 0.0847-17.462 8.5513-36.076 5.879-17.013-2.7146-38.399-5.3314-52.898-1.442-7.9587 2.1352-14.795 5.252-20.902 9.525-7.0432 4.9239-12.965 11.253-18.095 19.346-9.2604 14.592-18.706 16.296-26.736 16.042-7.5724-0.24077-17.171-6.4796-20.868-17.939a5.0985 5.0985 0 1 0-9.7049 3.1221 37.798 37.798 0 0 0 12.102 17.833c5.4478 4.4212 11.906 6.9665 18.145 7.1649 0.58738 0.0185 1.143 0.0265 1.6986 0.0265 6.0404 0 11.34-1.18 16.208-3.6116 6.6649-3.3311 12.642-9.1122 17.761-17.198 8.1439-12.819 18.64-20.608 33.033-24.461z" style="fill:#262c2d;stroke-width:.26458"/>
   <path d="m219.61 263.51v-0.0635c-0.30163-1.3785-0.86254-3.9449-0.65617-6.9003 0.62177-8.8715 2.7543-14.766 9.2154-21.241 4.1936-3.8179 5.7917-4.4768 5.8208-4.4979 0.0291-0.0212 2.8787-1.8071 3.7571-2.4315 1.0769-0.76465 1.4764-1.2647 1.3811-1.7277a0.61648 0.61648 0 0 0-0.28046-0.39423c-0.33337-0.21166-0.90752-0.20637-1.8098 0-1.1377 0.27781-5.2176 1.1986-7.747 2.3178l-0.95779 0.42069c-6.5617 2.884-12.017 6.7628-15.211 12.541-2.3627 4.2783-3.728 9.2128-4.0587 14.666-0.52917 8.7762 0.9472 12.848 1.9235 15.544l0.0503 0.14023c0.29898 0.82286 0.635 1.6563 1.0001 2.4765a2.8628 2.8628 0 0 0 3.8074 1.434l3.3496-1.5266c5.1541-1.9076 6.3341-0.74877 7.194 0.0979l0.0344 0.0318c1.3626 1.3388 1.2303 6.014-1.106 10.903l-17.232-0.14552c-0.50271-2.3045-3.9079-17.145-10.054-25.929-2.1167-3.2544-5.1012-4.1963-7.7946-2.4527a4.6487 4.6487 0 0 0-2.159 3.2253 5.5748 5.5748 0 0 0 1.2806 4.3445c5.7944 7.4824 9.9113 26.35 9.951 26.54l0.0265 0.0794c0.98425 2.1458 4.2624 4.1751 6.7442 4.1751h20.489a11.234 11.234 0 0 0 3.8206-0.84402c1.1033-0.44979 2.5056-1.2224 2.9369-2.3601l0.10848-0.17992c2.3812-3.9502 3.2173-6.9691 3.4846-8.808 1.143-7.8026 0.29898-12.435-2.8152-15.507-4.1936-4.109-9.062-5.4292-14.494-3.9291zm-5.2361-22.606 0.15082-0.22754zm0.1958-0.29369a22.471 22.471 0 0 1 2.1352-2.794 28.66 28.66 0 0 0-2.1352 2.794z" style="fill:#262c2d;stroke-width:.26458"/>
   <path d="m312.88 96.287a11.322 11.322 0 0 0-4.4979-9.0646l-24.154-18.394a3.13 3.13 0 0 1-0.81756-1.0583l-4.7969-10.107a10.708 10.708 0 0 0-4.5561-4.8313c-4.5641-2.503-6.8977-3.8947-8.0724-4.6355a49.652 49.652 0 0 0-0.62971-5.1223c-0.9869-5.3261-4.1143-9.2207-9.2922-11.576-4.9742-2.2595-15.542-2.7834-25.696-1.27-11.337 1.6907-49.358 10.287-62.643 49.985l-0.0582 0.17992-0.0556 0.21431c-3.4396 13.806-3.4634 26.416-0.0662 37.478 2.6988 8.8 7.5618 16.825 14.862 24.535 11.642 12.295 22.794 20.585 36.589 30.623-4.699 3.0956-6.5855 8.1333-5.7626 15.378-3.003 2.958-8.5434 7.3528-15.264 10.98-6.6146 3.5666-12.914 2.5321-21.638 1.1007l-0.90752-0.14817c-1.442-0.23548-2.8072-0.55827-4.2492-0.90223a56.539 56.539 0 0 0-8.3212-1.4922c-7.7338-0.7329-14.436-0.20902-20.005 1.5425-6.2124 1.7859-11.091 4.7625-15.169 7.2522-1.8891 1.1562-3.6751 2.2463-5.2917 3.0215-4.9477 2.3812-10.729 4.109-15.46 4.6196-5.8499 0.63235-10.104-0.43127-12.639-3.1565a5.3525 5.3525 0 1 0-7.837 7.2919c4.101 4.408 10.141 6.7389 17.463 6.7389a38.947 38.947 0 0 0 4.1619-0.23283c5.5721-0.60061 10.766-2.241 14.489-3.6883-6.0854 9.3292-18.584 14.531-22.569 16.042-6.4585 2.4474-13.118 10.115-8.1492 32.753 0.08202 0.37307 0.14552 0.65882 0.18256 0.84932 0.15875 0.83608 0.35719 1.7462 0.59267 2.7067a2.8707 2.8707 0 0 0 4.0719 1.8838c0.6985-0.34925 1.2171-0.61648 1.5452-0.79375l0.12435-0.0661c2.8257-1.5399 5.588-2.0373 7.2046-1.479 0.98425 0.34131 1.733 1.0927 2.2146 2.2146 1.6087 4.4027-1.5505 8.636-2.1828 9.4218-1.7357 0-15.457 0.0238-17.754 0-4.6725-10.054-12.39-18.015-15.51-20.987l-0.13758-0.1323q-0.13758-0.13758-0.26458-0.24606a3.0877 3.0877 0 0 1-0.26458-0.26458c0.06879-0.10848 0.26458-0.38894 0.45244-0.68527 1.0901-1.6404 3.6433-5.4795 4.6329-7.9216 0.98954-2.4421 1.5425-4.953 1.8785-6.4664 0.08996-0.40746 0.16669-0.75936 0.23812-1.0345 1.1033-5.7468-0.58738-9.697-2.5453-14.269-0.19844-0.46567-0.40217-0.93663-0.60325-1.4208-0.51329-1.2144-1.0716-2.4209-1.6616-3.7042-1.352-2.9104-2.7464-5.9214-3.6327-9.2207-0.0635-0.40746-0.14817-0.86254-0.23548-1.3441-0.88636-4.8128-2.5321-13.777 7.1279-24.987 1.0107-1.1218 2.0108-2.1828 2.8919-3.1194 2.1378-2.2648 3.8259-4.0561 4.3233-5.3208 0.39158-1.0054 0.43392-1.3229 0.19844-1.5293l-0.22225-0.17991-0.23548 0.12435c-7.1438 3.8126-13.417 9.3001-17.634 15.46-4.8313 7.0538-6.8792 14.801-5.9399 22.408 0.79375 6.3818 3.0454 11.729 4.8525 16.026 0.30956 0.73554 0.6059 1.3864 0.89165 2.0135 1.0716 2.3574 1.7806 3.9158 1.5399 6.3182v0.0344c-0.06879 5.0271-5.6753 14.007-7.5195 15.875-2.0346 2.0426-2.3204 3.937-0.88106 5.7917l0.04233 0.045c11.287 10.52 18.785 21.923 21.476 26.337a5.3816 5.3816 0 0 0 4.5667 2.5585h18.632c3.7359 0 6.7284-1.016 8.2021-2.757 1.5875-1.8706 1.9579-2.6458 2.4633-3.7042a32.39 32.39 0 0 0 2.0928-7.6412c0.75671-5.0721 0.10055-9.3848-1.9024-12.483-2.0928-3.093-5.8711-6.0325-14.227-4.4979-0.42333-4.2942-1.1589-14.388 2.3389-15.714 7.0326-2.6644 14.089-5.9134 18.957-9.6573a39.661 39.661 0 0 0 12.898-17.462c2.3574-6.3844 7.5221-13.494 26.696-11.668a50.819 50.819 0 0 1 7.6729 1.4049c1.4102 0.34131 2.7437 0.6641 4.1751 0.89693l0.7038 0.11642c9.6864 1.5875 18.838 3.0877 28.683-2.2251 9.8452-5.3128 15.563-10.583 17.576-12.618 1.225-1.233 1.9553-1.9897 1.9553-1.9897l3.3972-3.429-0.2249-0.26458a23.937 23.937 0 0 1-1.7595-2.2701 4.9662 4.9662 0 0 0-0.2831-0.45244 5.6303 5.6303 0 0 1-1.0583-2.5612c-0.21166-1.5875 0.4445-3.7306 2.1167-4.8048 1.7621-1.1351 4.6038-1.1456 5.8738-0.39952 1.4605 0.8599 2.3812 2.0532 2.63 2.6458 0.3175 0.7276 1.5214 3.175 1.5716 3.2861l0.0952 0.19579 0.21961 0.0159s1.3229 0.10319 1.8521 0.16404c0.52917 0.0608 2.1616 0.4101 2.1828 0.41275 1.0795 0.21431 4.7255 1.0583 6.313 3.0612 0.99219 1.2488 1.7172 2.757 2.4871 4.3524v0.0265c1.3123 2.6935 2.3257 4.8101 5.4795 7.3607l0.30956 0.24871c0.82021 0.66675 1.5875 1.1906 2.2886 1.6563 2.069 1.3944 3.3179 2.2357 3.1935 4.9742-0.30691 6.6754-2.9104 8.173-4.0111 8.8133l-0.0476 0.0265c-1.0028 0.57943-3.3496 2.0452-3.6142 2.2093-0.2249 0.10054-1.0107 0.49477-1.0583 1.1615-0.0318 0.4101 0.21432 0.77787 0.71173 1.0874 0.83609 0.59002 2.4633 1.3229 4.2572 1.8971-0.83608 4.5746-2.3998 15.478-0.67733 26.633 0.95514 6.1886 2.7252 11.964 5.1144 16.706a30.917 30.917 0 0 0 2.2834 4.0375c1.2012 1.7066 2.8548 3.3734 3.6883 3.7042 0.73025 0.29898 1.8521-0.22225 2.8258-0.7329l0.22225-0.11377c0.47625-0.23548 1.8336-0.75935 1.8521-0.76465 3.5401-1.3891 5.8394-1.4605 7.0194-0.22489 1.3996 1.479 1.442 4.4979 0.13493 8.7312-0.61118 1.6272-0.889 2.2701-1.0081 2.5162h-18.14c-3.6856-22.894-17.269-36.777-17.849-37.346a5.0963 5.0963 0 0 0-7.2231 7.1914c0.11906 0.12171 12.057 12.322 15.081 32.319 0.29898 4.101 3.7042 7.3845 8.3132 7.9878l0.30427 0.0397h20.309l0.28575-0.0317c2.3468-0.26458 5.7256-1.0583 7.9719-4.9504l0.0926-0.17198c4.5508-8.6519 4.2571-18.328-0.71438-23.529-2.2278-2.331-5.2123-3.6777-8.6307-3.8973-2.3072-0.14816-4.5746 0.20902-7.3104 1.1536-2.2252-4.0984-3.7042-8.7312-4.5588-14.192-1.5372-9.9457 0.11377-20.079 0.99483-24.41a11.877 11.877 0 0 0 1.3229-0.26458 17.664 17.664 0 0 0 3.4396-1.4367c1.8759-0.83608 5.7706-3.6195 5.8208-3.6539 0.52917-0.39423 13.041-9.8954 20.794-28.916 3.8788-9.5118 5.252-18.812 4.0878-27.641-1.1218-8.4852-4.535-16.285-10.152-23.185-1.1033-1.36-2.3548-2.7596-3.6698-4.1513 4.0375-1.6298 8.6545-3.6486 9.7076-4.1619 0.61119-0.29897 1.561-0.7276 2.6644-1.225 3.5401-1.5875 8.3899-3.7756 9.6308-5.0721 3.085-3.2253 3.2411-7.3051 3.2173-8.4667zm-10.583 21.167a1.7357 1.7357 0 0 1-0.3122 0.93133c-0.56092 0.42333-10.848 5.0959-13.348 6.1833-0.36248 0.15875-0.94986 0.41011-1.6775 0.72231-2.5479 1.0954-5.1991 2.2384-7.2496 3.1538-1.9923-1.8283-3.7888-3.4105-5.0959-4.5614-0.77523-0.68262-1.3864-1.2224-1.8018-1.5875l-0.0847-0.0794c-2.6061-2.3812-8.0301-7.3316-10.665-10.345-0.72496-0.82815-1.6325-1.7859-2.5903-2.8019-2.6247-2.7755-5.887-6.2283-7.9904-9.6785a60.605 60.605 0 0 1-2.7887-5.461c-1.5875-3.339-2.9342-6.2256-4.3074-6.686a1.2039 1.2039 0 0 0-0.96572 0.07144c-2.0214 1.0583-0.74878 5.4372 0.37835 9.3054 0.1905 0.65881 0.37306 1.2806 0.52917 1.8521 1.0134 3.773 6.3182 12.412 10.917 17.775 4.5985 5.3631 5.7203 6.4585 10.205 10.681 5.8208 5.4795 13.065 12.298 18.611 19.114 9.4165 11.576 11.036 25.929 4.6778 41.54-6.7866 16.648-17.674 25.194-17.777 25.276-0.10318 0.082-0.26458 0.20902-0.52916 0.41805l-0.44979 0.35718c-0.90223 0.71438-2.1696 1.7013-2.794 2.1167-1.3891 0.9525-2.6458 1.5319-3.0718 1.5319a5.2149 5.2149 0 0 1 0.4154-0.87313c0.4736-0.87312 1.1906-2.1934 1.7118-4.9318 0.54769-2.8866-0.0714-6.4426-1.7912-10.284-3.7227-8.3079-12.359-16.775-30.79-30.215q-3.2914-2.4051-6.35-4.6329c-14.925-10.848-25.707-18.69-37.285-30.914-6.2548-6.6146-10.213-13.089-12.459-20.41-2.8548-9.3001-2.7993-19.664 0.16669-31.684 11.422-33.893 44.355-41.299 54.176-42.759 10.618-1.5875 18.063-0.35719 19.828 0.44715 2.0452 0.92869 2.9818 2.0373 3.3364 3.9688a47.442 47.442 0 0 1 0.56356 5.0271c0.0344 0.47625 0.0688 0.91546 0.10319 1.3044 0.16933 1.9156 3.8762 4.2836 7.7999 6.7919 2.3125 1.479 4.4979 2.876 5.5324 3.9529 2.622 2.7437 4.8498 10.081 4.871 10.155l0.0212 0.05292a13.695 13.695 0 0 0 3.7412 4.7202l24.342 18.55 0.0344 0.02381a0.8255 0.8255 0 0 1 0.32544 0.65352l-0.12965 20.788-0.045 0.0503z" style="fill:#262c2d;stroke-width:.26458"/>
  </g>
 </g>
</svg>
